<svg height="100" width="100" viewBox="0 0 100 100" xmlns="http://www.w3.org/2000/svg">
	<mask id="rounded-edges">
		<rect fill="#000" height="100" width="100" x="0" y="0" />
		<rect fill="#fff" height="100" rx="25" ry="25" width="100" x="0" y="0" />
	</mask>
	<g mask="url(#rounded-edges)">
		<rect fill="#fc0" x="0" y="0" width="100" height="100" />
		<g transform="translate(2.5,2.5)">
			<!-- phone -->
			<rect fill="#000" height="70" rx="7.5" width="40" x="30" y="15" />
			<rect fill="#fff" height="55" rx="2.5" width="30" x="35" y="20" />
			<circle fill="#fff" cx="50" cy="80" r="2.5" />
			<!-- rulers -->
			<rect fill="#000" height="55" width="7.5" x="17.5" y="20" />
			<rect fill="#fff" height="2.5" width="3.75" x="21.25" y="32.5" />
			<rect fill="#fff" height="2.5" width="5" x="20" y="47.5" />
			<rect fill="#fff" height="2.5" width="3.75" x="21.25" y="62.5" />

			<rect fill="#000" height="7.5" width="30" x="35" y="2.5" />
			<rect fill="#fff" height="3.75" width="2.5" x="42.5" y="6.25" />
			<rect fill="#fff" height="3.75" width="2.5" x="55" y="6.25" />
		</g>
		<rect
			x="-5"
			y="-5"
			rx="30"
			width="110"
			height="105"
			stroke="#0006"
			stroke-width="10"
			fill="none"
		/>
	</g>
</svg>